<svg width="488" height="488" viewBox="0 0 488 488" fill="none" xmlns="http://www.w3.org/2000/svg">
<g clip-path="url(#clip0_209_2)">
<rect width="488" height="488" fill="#FFC805"/>
<path d="M256.792 111.583C225.362 108.565 193.884 116.834 167.995 134.909C142.107 152.984 123.498 179.685 115.502 210.231C107.506 240.776 110.645 273.17 124.356 301.612C138.068 330.053 161.456 352.685 190.333 365.454C207.057 373.017 225.149 377.087 243.5 377.417C272.715 377.419 301.117 367.796 324.313 350.036C327.113 347.901 328.951 344.743 329.425 341.254C329.898 337.765 328.968 334.231 326.839 331.427C325.781 330.022 324.454 328.841 322.936 327.952C321.418 327.064 319.739 326.485 317.996 326.25C316.252 326.015 314.48 326.129 312.781 326.584C311.082 327.039 309.49 327.827 308.098 328.902C294.312 339.315 278.198 346.212 261.148 348.997C244.098 351.782 226.626 350.37 210.244 344.885C193.863 339.4 179.064 330.005 167.129 317.515C155.194 305.025 146.482 289.814 141.746 273.2C137.011 256.586 136.395 239.068 139.952 222.162C143.508 205.257 151.131 189.472 162.159 176.174C173.187 162.877 187.29 152.466 203.246 145.844C219.202 139.221 236.531 136.586 253.735 138.167C280.434 141.257 305.038 154.138 322.789 174.32C340.54 194.502 350.176 220.549 349.833 247.424V256.462C349.818 259.516 349.188 262.535 347.98 265.34C346.772 268.144 345.011 270.676 342.803 272.785C340.595 274.894 337.984 276.537 335.127 277.615C332.27 278.692 329.225 279.183 326.174 279.058C320.09 278.39 314.484 275.44 310.489 270.803C306.493 266.166 304.403 260.187 304.642 254.07V196.65C304.642 193.125 303.241 189.744 300.749 187.251C298.256 184.759 294.875 183.358 291.35 183.358C288.105 183.331 284.962 184.492 282.513 186.622C280.065 188.752 278.48 191.704 278.058 194.922C265.689 183.273 249.327 176.804 232.335 176.845C220.787 176.932 209.453 179.973 199.413 185.679C189.373 191.386 180.961 199.567 174.977 209.444C168.994 219.322 165.638 230.566 165.23 242.108C164.822 253.649 167.375 265.102 172.646 275.378C177.917 285.653 185.731 294.408 195.343 300.809C204.955 307.21 216.045 311.044 227.558 311.946C239.071 312.848 250.624 310.788 261.115 305.962C271.607 301.136 280.689 293.704 287.496 284.375C291.354 290.343 296.493 295.377 302.539 299.111C308.586 302.845 315.389 305.185 322.453 305.962C329.517 306.738 336.665 305.931 343.379 303.6C350.092 301.268 356.202 297.471 361.264 292.483C366.136 287.848 369.998 282.255 372.605 276.056C375.213 269.858 376.51 263.187 376.417 256.462V247.424C376.714 214.022 364.67 181.686 342.594 156.617C320.517 131.548 289.964 115.512 256.792 111.583V111.583ZM232.601 285.571C224.478 285.571 216.537 283.162 209.783 278.649C203.029 274.137 197.765 267.722 194.656 260.217C191.547 252.712 190.734 244.454 192.319 236.487C193.904 228.52 197.815 221.202 203.559 215.458C209.303 209.714 216.621 205.803 224.588 204.218C232.555 202.633 240.813 203.446 248.318 206.555C255.823 209.664 262.237 214.928 266.75 221.682C271.263 228.436 273.672 236.377 273.672 244.5C273.637 255.382 269.299 265.808 261.604 273.503C253.909 281.198 243.483 285.536 232.601 285.571V285.571Z" fill="black"/>
<line x1="408.303" y1="84.3033" x2="77.3033" y2="415.303" stroke="black" stroke-width="15"/>
</g>
<defs>
<clipPath id="clip0_209_2">
<rect width="488" height="488" fill="white"/>
</clipPath>
</defs>
</svg>
